<svg xmlns="http://www.w3.org/2000/svg" width="27" height="26" viewBox="0 0 27 26" fill="none">
  <rect x="1.25" y="1" width="24" height="24" rx="12" fill="white"/>
  <path d="M20.7502 16.36C20.7502 18.3703 19.1205 20 17.1102 20C15.0999 20 13.4702 18.3703 13.4702 16.36C13.4702 14.3497 15.0999 12.72 17.1102 12.72C19.1205 12.72 20.7502 14.3497 20.7502 16.36Z" fill="#1CB355"/>
  <path d="M13.47 9.36C13.47 11.2157 11.9657 12.72 10.11 12.72C8.25432 12.72 6.75 11.2157 6.75 9.36C6.75 7.50432 8.25432 6 10.11 6C11.9657 6 13.47 7.50432 13.47 9.36Z" fill="#0077FF"/>
  <path d="M19.6298 9.63993C19.6298 11.0317 18.5016 12.1599 17.1098 12.1599C15.7181 12.1599 14.5898 11.0317 14.5898 9.63993C14.5898 8.24818 15.7181 7.11993 17.1098 7.11993C18.5016 7.11993 19.6298 8.24818 19.6298 9.63993Z" fill="#F16063"/>
  <path d="M11.2301 16.0802C11.2301 17.008 10.478 17.7602 9.55012 17.7602C8.62228 17.7602 7.87012 17.008 7.87012 16.0802C7.87012 15.1524 8.62228 14.4002 9.55012 14.4002C10.478 14.4002 11.2301 15.1524 11.2301 16.0802Z" fill="#C521FF"/>
  <rect x="1.25" y="1" width="24" height="24" rx="12" stroke="white" stroke-width="2"/>
</svg>