<svg xmlns="http://www.w3.org/2000/svg" width="27" height="26" viewBox="0 0 27 26" fill="none">
  <rect x="1.25" y="1" width="24" height="24" rx="12" fill="#0077FF" stroke="white" stroke-width="2"/>
  <path d="M13.8887 17.55C9.00297 17.55 6.21621 14.1341 6.1001 8.45001H8.54744C8.62783 12.622 10.4321 14.3892 11.8612 14.7535V8.45001H14.1656V12.0481C15.5769 11.8933 17.0596 10.2536 17.5597 8.45001H19.8642C19.6757 9.38541 19.3 10.2711 18.7605 11.0516C18.2211 11.8322 17.5295 12.4908 16.7291 12.9863C17.6226 13.4391 18.4117 14.08 19.0445 14.8666C19.6773 15.6533 20.1393 16.5679 20.4001 17.55H17.8634C17.6294 16.697 17.1536 15.9333 16.4958 15.3548C15.838 14.7764 15.0274 14.4087 14.1656 14.2981V17.55H13.8887Z" fill="white"/>
</svg>